<svg xmlns="http://www.w3.org/2000/svg" width="240" height="64" viewBox="0 0 240 64" role="img" aria-label="Adam’sneakers">
  <defs>
    <linearGradient id="grad" x1="0" y1="0" x2="1" y2="1">
      <stop offset="0%" stop-color="#38BDF8"/>
      <stop offset="100%" stop-color="#A78BFA"/>
    </linearGradient>
    <filter id="shadow" x="-20%" y="-20%" width="140%" height="140%">
      <feDropShadow dx="0" dy="2" stdDeviation="2" flood-color="#0f172a" flood-opacity=".25"/>
    </filter>
  </defs>
  <rect x="0" y="0" width="240" height="64" rx="14" fill="#0F172A"/>
  <g transform="translate(16,10)" filter="url(#shadow)">
    <path d="M14 12c5.5 0 9.6 3.6 11 8l12.8 1.8c5 .7 8.2 5 8.2 10.1V36H8.8C5.1 36 2 32.9 2 29.2 2 22.7 7.3 17.3 13.8 17.3H16c-.6-3.3-2.3-5.3-2-5.3z" fill="url(#grad)"/>
    <circle cx="30" cy="36" r="3.2" fill="#0F172A"/>
    <circle cx="43" cy="36" r="3.2" fill="#0F172A"/>
    <path d="M18 20h10" stroke="#ffffff" stroke-opacity=".7" stroke-width="1.5" stroke-linecap="round"/>
    <path d="M17 23h12" stroke="#ffffff" stroke-opacity=".5" stroke-width="1.5" stroke-linecap="round"/>
  </g>
  <g transform="translate(84,14)">
    <text x="0" y="18" font-family="'Inter', system-ui, -apple-system, Segoe UI, Roboto, Helvetica, Arial, sans-serif" font-weight="800" font-size="18" fill="#FFFFFF">Adam</text>
    <text x="58" y="18" font-family="'Inter', system-ui, -apple-system, Segoe UI, Roboto, Helvetica, Arial, sans-serif" font-weight="800" font-size="18" fill="url(#grad)">’s</text>
    <text x="0" y="40" font-family="'Inter', system-ui, -apple-system, Segoe UI, Roboto, Helvetica, Arial, sans-serif" font-weight="800" font-size="18" fill="#FFFFFF">sneakers</text>
  </g>
</svg>

